# xmcd CD database file
# Copyright (C) 1993-1998 Ti Kan
#
# Track frame offsets:
#  150
#  17023
#  45755
#  65220
#  87470
#  116198
#  149598
#  173308
#  186918
#  202398
#  213665
#  229273
#  243393
#  254948
#  266800
#  290283
#
# Disc length: 4121 seconds
#
# Revision: 1
# Processed by: cddbd v1.4b41PL1 Copyright (c) Steve Scherf et al.
# Submitted via: CDWizzard Release:4.35
#
DISCID=03101710
DTITLE=Harvey Mandel - The Snake/Baby Batter
DYEAR=1900
DGENRE=
TTITLE0=Baby Batter
TTITLE1=Midnight Sun
TTITLE2=One Way Street
TTITLE3=Morton Grove MaMa
TTITLE4=Freedom Ball
TTITLE5=El Stinger
TTITLE6=Hank The Ripper
TTITLE7=The Divining Rod
TTITLE8=Pegasus
TTITLE9=Lynda Love
TTITLE10=Peruvian Flake
TTITLE11=The Snake
TTITLE12=Uno Ino
TTITLE13=Ode To The Owl
TTITLE14=Levitation
TTITLE15=Bite The Electric Eel
EXTD=
EXTT0=
EXTT1=
EXTT2=
EXTT3=
EXTT4=
EXTT5=
EXTT6=
EXTT7=
EXTT8=
EXTT9=
EXTT10=
EXTT11=
EXTT12=
EXTT13=
EXTT14=
EXTT15=
PLAYORDER=
